<?xml version="1.0" encoding="utf-8"?>
<!-- Generator: Adobe Illustrator 19.1.0, SVG Export Plug-In . SVG Version: 6.00 Build 0)  -->
<svg version="1.1" id="Layer_1" xmlns="http://www.w3.org/2000/svg" xmlns:xlink="http://www.w3.org/1999/xlink" x="0px" y="0px"
	 width="100px" height="100px" viewBox="0 0 100 100" enable-background="new 0 0 100 100" xml:space="preserve">
<circle fill="#6E897E" cx="50" cy="50" r="50"/>
<path fill="#37453F" d="M85.4,85.4c19.5-19.5,19.5-51.2,0-70.7s-51.2-19.5-70.7,0L85.4,85.4z"/>
<path fill="#C1D6CD" d="M20.5,20.5c16.2-16.2,42.7-16.2,58.9,0s16.2,42.7,0,58.9c-16.2,16.2-42.7,16.2-58.9,0S4.3,36.8,20.5,20.5z"
	/>
<path fill="#B2D1C5" d="M20.5,20.5c16.2-16.2,42.7-16.2,58.9,0s16.2,42.7,0,58.9L20.5,20.5z"/>
<polygon fill="#AECABE" points="75,75 25,75 50,50 "/>
<path fill="#9BC3B3" d="M91.7,50c0,0.5,0,0.9,0,1.4c0,0.2,0,0.4,0,0.6c0,0.5-0.1,1.1-0.1,1.6c0,0.3-0.1,0.7-0.1,1
	c0,0.3-0.1,0.6-0.1,0.9c0,0.4-0.1,0.7-0.1,1.1c0,0,0,0.1,0,0.1C91,57.1,91,57.5,90.9,58c-0.1,0.7-0.3,1.3-0.4,2
	c-0.1,0.4-0.2,0.9-0.3,1.3c-0.3,1.2-0.7,2.4-1.2,3.5c-0.2,0.5-0.3,0.9-0.5,1.4c0,0,0,0.1,0,0.1c-0.2,0.4-0.4,0.8-0.5,1.3
	c-0.3,0.6-0.6,1.3-0.9,1.9c-0.2,0.4-0.5,0.9-0.7,1.3c0,0,0,0,0,0c-0.3,0.5-0.5,0.9-0.8,1.3c0,0.1-0.1,0.1-0.1,0.2
	c-0.3,0.4-0.5,0.8-0.8,1.3c-0.1,0.1-0.1,0.2-0.2,0.3c-0.3,0.4-0.6,0.8-0.9,1.2H75L50,50l25-25h8.3c0.3,0.4,0.6,0.8,0.9,1.2
	c0.1,0.1,0.1,0.2,0.2,0.3c0.3,0.4,0.6,0.8,0.8,1.3c0,0.1,0.1,0.1,0.1,0.2c0.3,0.4,0.5,0.9,0.8,1.3c0,0,0,0,0,0
	c0.2,0.4,0.5,0.9,0.7,1.3c0,0,0,0.1,0.1,0.2c0.2,0.4,0.4,0.8,0.6,1.2c0.1,0.2,0.2,0.4,0.3,0.6c0.2,0.4,0.4,0.8,0.5,1.3
	c0,0,0,0.1,0,0.1c0.2,0.4,0.4,0.9,0.5,1.4c0.4,1.2,0.8,2.3,1.2,3.5c0.1,0.4,0.2,0.9,0.3,1.3c0.2,0.7,0.3,1.3,0.4,2
	c0.1,0.5,0.2,0.9,0.2,1.3c0,0,0,0.1,0,0.1c0.1,0.4,0.1,0.7,0.1,1.1c0,0.1,0,0.3,0.1,0.4c0,0.1,0,0.3,0.1,0.4c0,0.3,0.1,0.7,0.1,1
	c0,0.5,0.1,1.1,0.1,1.6l0,0.6C91.6,49.1,91.7,49.5,91.7,50z"/>
<path fill="#37453F" d="M75,25L51.6,37.4c-3.7-0.4-7.5,0.8-10.3,3.6c-2.8,2.8-4,6.5-3.6,10.1L25,75l23.8-12.7
	c3.7,0.4,7.4-0.9,10.1-3.6c2.6-2.6,4-6.4,3.6-10.3L75,25z"/>
<path fill="#6E897E" d="M41.3,41c-2.8,2.8-4,6.5-3.6,10.1L25,75l23.8-12.7c3.7,0.4,7.4-0.9,10.1-3.6L41.3,41z"/>
<path fill="#B2D1C5" d="M75,75h8.3c-1.2,1.6-2.5,3-3.9,4.5L75,75z"/>
<path fill="#162B18" d="M59,58.7c-2.8,2.8-6.4,4-10.1,3.6L25,75l25.1-25.1L59,58.7z"/>
<path fill="#0B0E0D" d="M62.6,48.4c0.5,4-0.9,7.7-3.6,10.3l-8.8-8.8L75,25L62.6,48.4z"/>
<path fill="#FCA90F" d="M46.4,46.2c2-2,5.3-2,7.4,0c2,2,2,5.3,0,7.4c-2,2-5.3,2-7.4,0C44.4,51.5,44.4,48.2,46.4,46.2z"/>
<path fill="#FA6D04" d="M46.4,46.2c2-2,5.3-2,7.4,0c2,2,2,5.3,0,7.4L46.4,46.2z"/>
</svg>
